<svg width="40" height="40" viewBox="0 0 40 40" fill="none" xmlns="http://www.w3.org/2000/svg">
<circle cx="20" cy="20" r="20" fill="#F20988"/>
<circle cx="20.2536" cy="20.1097" r="5.47572" stroke="white" stroke-width="2.02805"/>
<mask id="path-3-inside-1_26_218" fill="white">
<path fill-rule="evenodd" clip-rule="evenodd" d="M6.1322 20.3125C9.19423 15.785 14.3763 12.8087 20.2536 12.8087C26.1309 12.8087 31.313 15.785 34.375 20.3125C31.313 24.84 26.1309 27.8163 20.2536 27.8163C14.3763 27.8163 9.19423 24.84 6.1322 20.3125Z"/>
</mask>
<path d="M6.1322 20.3125L4.45228 19.1763L3.68389 20.3125L4.45228 21.4486L6.1322 20.3125ZM34.375 20.3125L36.0549 21.4486L36.8233 20.3125L36.0549 19.1763L34.375 20.3125ZM7.81212 21.4486C10.5131 17.455 15.0779 14.8368 20.2536 14.8368V10.7807C13.6748 10.7807 7.87541 14.1149 4.45228 19.1763L7.81212 21.4486ZM20.2536 14.8368C25.4293 14.8368 29.9942 17.455 32.6951 21.4486L36.0549 19.1763C32.6318 14.1149 26.8324 10.7807 20.2536 10.7807V14.8368ZM32.6951 19.1763C29.9942 23.17 25.4293 25.7882 20.2536 25.7882V29.8443C26.8324 29.8443 32.6318 26.5101 36.0549 21.4486L32.6951 19.1763ZM20.2536 25.7882C15.0779 25.7882 10.5131 23.17 7.81212 19.1763L4.45228 21.4486C7.87541 26.5101 13.6748 29.8443 20.2536 29.8443V25.7882Z" fill="white" mask="url(#path-3-inside-1_26_218)"/>
</svg>
