<svg width="29" height="16" viewBox="0 0 29 16" fill="none" xmlns="http://www.w3.org/2000/svg">
<circle cx="14.2536" cy="8.10971" r="5.47572" stroke="white" stroke-width="2.02805"/>
<mask id="path-2-inside-1_26_216" fill="white">
<path fill-rule="evenodd" clip-rule="evenodd" d="M0.132202 8.31249C3.19423 3.78496 8.37635 0.808716 14.2536 0.808716C20.1309 0.808716 25.313 3.78496 28.375 8.31249C25.313 12.84 20.1309 15.8163 14.2536 15.8163C8.37635 15.8163 3.19423 12.84 0.132202 8.31249Z"/>
</mask>
<path d="M0.132202 8.31249L-1.54772 7.17634L-2.31611 8.31249L-1.54772 9.44864L0.132202 8.31249ZM28.375 8.31249L30.0549 9.44864L30.8233 8.31249L30.0549 7.17634L28.375 8.31249ZM1.81212 9.44864C4.51306 5.45503 9.07791 2.83676 14.2536 2.83676V-1.21933C7.67479 -1.21933 1.87541 2.11489 -1.54772 7.17634L1.81212 9.44864ZM14.2536 2.83676C19.4293 2.83676 23.9942 5.45503 26.6951 9.44864L30.0549 7.17634C26.6318 2.11489 20.8324 -1.21933 14.2536 -1.21933V2.83676ZM26.6951 7.17634C23.9942 11.17 19.4293 13.7882 14.2536 13.7882V17.8443C20.8324 17.8443 26.6318 14.5101 30.0549 9.44864L26.6951 7.17634ZM14.2536 13.7882C9.07791 13.7882 4.51306 11.17 1.81212 7.17634L-1.54772 9.44864C1.87541 14.5101 7.67479 17.8443 14.2536 17.8443V13.7882Z" fill="white" mask="url(#path-2-inside-1_26_216)"/>
</svg>
