<svg width="356" height="197" viewBox="0 0 356 197" fill="none" xmlns="http://www.w3.org/2000/svg">
<path d="M196.811 169.699C193.609 166.184 191.997 161.416 191.997 155.384C191.997 149.363 193.609 144.606 196.834 141.091C200.036 137.599 204.375 135.848 209.851 135.848C214.259 135.848 217.994 137.089 221.034 139.583C224.085 142.089 225.86 145.337 226.37 149.305H218.609C218.099 147.251 217.066 145.593 215.5 144.351C213.899 143.122 212.02 142.507 209.851 142.507C206.869 142.507 204.502 143.655 202.739 145.952C200.964 148.272 200.071 151.393 200.071 155.337C200.071 159.328 200.953 162.484 202.716 164.781C204.479 167.101 206.869 168.261 209.874 168.261C212.09 168.261 213.969 167.692 215.523 166.544C217.055 165.419 218.099 163.853 218.633 161.846H226.394C225.779 165.859 223.992 169.027 221.034 171.358C218.052 173.725 214.329 174.908 209.851 174.908C204.363 174.931 200.013 173.191 196.811 169.699ZM262.078 141.242C265.35 144.722 266.997 149.432 266.997 155.407C266.997 161.358 265.361 166.068 262.078 169.537C258.807 173.017 254.375 174.746 248.795 174.746C243.203 174.746 238.772 173.006 235.512 169.537C232.24 166.057 230.593 161.347 230.593 155.407C230.593 149.444 232.229 144.722 235.512 141.242C238.772 137.762 243.192 136.033 248.795 136.033C254.398 136.033 258.83 137.773 262.078 141.242ZM241.428 146.045C239.584 148.365 238.656 151.486 238.656 155.407C238.656 159.317 239.572 162.426 241.405 164.746C243.238 167.043 245.698 168.191 248.807 168.191C251.893 168.191 254.352 167.043 256.173 164.746C258.006 162.426 258.923 159.317 258.923 155.407C258.923 151.486 258.006 148.365 256.173 146.045C254.34 143.725 251.881 142.565 248.807 142.565C245.732 142.565 243.261 143.725 241.428 146.045ZM291.881 170.581C288.761 167.623 286.939 163.539 286.417 158.342H280.907V174.108H273.006V136.683H280.907V151.88H286.475C287.09 146.845 288.958 142.901 292.09 140.024C295.211 137.159 299.225 135.72 304.143 135.72C309.631 135.72 313.981 137.483 317.183 141.01C320.385 144.537 321.997 149.328 321.997 155.372C321.997 161.428 320.396 166.219 317.183 169.769C313.993 173.296 309.642 175.059 304.143 175.059C299.12 175.059 295.037 173.563 291.881 170.581ZM296.951 145.883C295.153 148.238 294.259 151.393 294.259 155.372C294.259 159.351 295.153 162.518 296.928 164.862C298.703 167.228 301.104 168.412 304.12 168.412C307.113 168.412 309.503 167.228 311.278 164.862C313.053 162.507 313.946 159.351 313.946 155.372C313.946 151.393 313.053 148.238 311.278 145.883C309.503 143.528 307.113 142.356 304.12 142.356C301.139 142.356 298.749 143.539 296.951 145.883ZM335.907 151.927H340.895C342.775 151.927 344.306 151.451 345.501 150.5C346.673 149.548 347.253 148.307 347.253 146.764C347.253 145.221 346.696 144.015 345.582 143.133C344.469 142.251 342.937 141.811 341.011 141.811C339.062 141.811 337.485 142.298 336.278 143.261C335.072 144.224 334.422 145.535 334.318 147.182H327.021C327.148 143.655 328.482 140.859 331.046 138.806C333.587 136.753 336.974 135.72 341.22 135.72C345.257 135.72 348.529 136.648 351.023 138.516C353.529 140.395 354.793 142.843 354.793 145.859C354.793 147.971 354.144 149.815 352.833 151.381C351.522 152.948 349.805 153.968 347.682 154.421V154.63C350.223 154.908 352.253 155.871 353.749 157.53C355.246 159.177 356 161.242 356 163.76C356 167.043 354.596 169.746 351.789 171.88C348.97 174.003 345.385 175.071 341.046 175.071C336.719 175.071 333.216 174.015 330.513 171.904C327.81 169.781 326.371 166.973 326.197 163.47H333.749C333.877 165.082 334.596 166.358 335.919 167.31C337.241 168.261 338.981 168.737 341.116 168.737C343.134 168.737 344.77 168.226 346.035 167.205C347.276 166.208 347.891 164.885 347.891 163.238C347.891 161.614 347.276 160.337 346.058 159.398C344.84 158.481 343.146 158.029 340.988 158.029H335.919V151.927H335.907Z" fill="url(#paint0_linear_12_399)"/>
<path d="M19.9306 163.214H19.7217L9.08361 136.671H0V174.119H6.98383V148.841H7.19264L17.3551 173.748H22.2856L32.4596 148.841H32.6684V174.119H39.6523V136.671H30.5687L19.9306 163.214Z" fill="black"/>
<path d="M46.9608 174.12H71.7754V167.623H54.8031V158.18H70.8125V152.159H54.8031V143.133H71.7754V136.672H46.9608V174.12Z" fill="black"/>
<path d="M126.103 162.02H125.79V136.672H117.982V174.12H125.534L142.53 148.795H142.843V174.12H150.651V136.672H143.098L126.103 162.02Z" fill="black"/>
<path d="M177.507 136.672H168.296L155.291 174.12H163.33L166.184 165.036H179.34L182.194 174.12H190.523L177.507 136.672ZM167.878 159.166L172.681 143.829H172.866L177.669 159.166H167.878Z" fill="black"/>
<path d="M99.1885 136.672H89.9773L79.2348 167.623H75.8358V177.263H81.2186V174.12H90.8822H92.5528H107.994V177.263H113.377V167.623H109.966L99.1885 136.672ZM92.518 167.623H90.8474H87.0539L87.866 165.036L89.5481 159.177L94.3509 143.841H94.5366L99.3394 159.177L101.022 165.036L101.834 167.623H92.518Z" fill="black"/>
<path d="M48.1789 184.444C46.6708 184.444 45.4643 184.978 44.5711 186.045C43.701 187.089 43.2601 188.516 43.2601 190.28C43.2601 192.043 43.701 193.47 44.5711 194.514C45.4527 195.581 46.6708 196.115 48.1789 196.115C49.6871 196.115 50.8936 195.581 51.7869 194.514C52.657 193.47 53.0978 192.055 53.0978 190.28C53.0978 188.505 52.657 187.089 51.7869 186.045C50.8936 184.978 49.6871 184.444 48.1789 184.444ZM50.3368 193.203C49.8031 193.888 49.0954 194.224 48.1789 194.224C47.2625 194.224 46.5548 193.888 46.0212 193.203C45.4759 192.496 45.1975 191.509 45.1975 190.28C45.1975 189.05 45.4759 188.052 46.0212 187.345C46.5548 186.66 47.2625 186.324 48.1789 186.324C49.0954 186.324 49.8031 186.66 50.3368 187.345C50.882 188.052 51.1604 189.038 51.1604 190.28C51.1604 191.509 50.882 192.496 50.3368 193.203Z" fill="black"/>
<path d="M55.2208 195.941H57.1234V186.486H61.787V195.941H63.678V184.618H55.2208V195.941Z" fill="black"/>
<path d="M66.1838 195.941H73.0052V194.085H68.0863V191.08H72.7499V189.236H68.0863V186.475H73.0052V184.618H66.1838V195.941Z" fill="black"/>
<path d="M79.3161 184.618H75.2325V195.941H77.1351V192.136H79.3045C80.337 192.136 81.1839 191.776 81.8451 191.069C82.4948 190.373 82.8312 189.456 82.8312 188.366C82.8312 187.275 82.5064 186.37 81.8567 185.674C81.1954 184.978 80.337 184.618 79.3161 184.618ZM80.4066 189.792C80.0818 190.129 79.6177 190.291 78.9913 190.291H77.1235V186.451H78.9913C79.6177 186.451 80.0818 186.614 80.4182 186.95C80.743 187.275 80.9055 187.739 80.9055 188.366C80.8939 188.992 80.7314 189.456 80.4066 189.792Z" fill="black"/>
<path d="M87.17 184.618L83.272 195.941H85.279L86.2767 192.89H89.757L90.7547 195.941H92.7617L88.8637 184.618H87.17ZM86.8568 191.103L88.0169 187.565L89.177 191.103H86.8568Z" fill="black"/>
<path d="M92.4833 186.475H95.6968V195.941H97.5877V186.475H100.801V184.618H92.4833V186.475Z" fill="black"/>
<path d="M106.393 184.444C104.885 184.444 103.678 184.978 102.785 186.045C101.915 187.089 101.474 188.516 101.474 190.28C101.474 192.043 101.915 193.47 102.785 194.514C103.667 195.581 104.885 196.115 106.393 196.115C107.901 196.115 109.107 195.581 110.001 194.514C110.871 193.47 111.312 192.055 111.312 190.28C111.312 188.505 110.871 187.089 110.001 186.045C109.107 184.978 107.901 184.444 106.393 184.444ZM108.551 193.203C108.017 193.888 107.309 194.224 106.393 194.224C105.476 194.224 104.769 193.888 104.235 193.203C103.69 192.496 103.411 191.509 103.411 190.28C103.411 189.05 103.69 188.052 104.235 187.345C104.769 186.66 105.476 186.324 106.393 186.324C107.309 186.324 108.017 186.66 108.551 187.345C109.096 188.052 109.374 189.038 109.374 190.28C109.374 191.509 109.096 192.496 108.551 193.203Z" fill="black"/>
<path d="M117.518 184.618H113.435V195.941H115.337V192.136H117.507C118.539 192.136 119.386 191.776 120.047 191.069C120.697 190.373 121.033 189.456 121.033 188.366C121.033 187.275 120.708 186.37 120.059 185.674C119.398 184.978 118.551 184.618 117.518 184.618ZM118.609 189.792C118.284 190.129 117.82 190.291 117.193 190.291H115.326V186.451H117.193C117.82 186.451 118.284 186.614 118.62 186.95C118.945 187.275 119.107 187.739 119.107 188.366C119.096 188.992 118.945 189.456 118.609 189.792Z" fill="black"/>
<path d="M143.168 189.224H138.365V184.618H136.474V195.941H138.365V191.08H143.168V195.941H145.07V184.618H143.168V189.224Z" fill="black"/>
<path d="M150.558 184.618L146.66 195.941H148.667L149.665 192.89H153.145L154.143 195.941H156.15L152.252 184.618H150.558ZM150.245 191.103L151.405 187.565L152.565 191.103H150.245Z" fill="black"/>
<path d="M161.822 184.618H157.739V195.941H159.641V192.136H161.811C162.843 192.136 163.69 191.776 164.351 191.069C165.001 190.373 165.337 189.456 165.337 188.366C165.337 187.275 165.013 186.37 164.363 185.674C163.702 184.978 162.843 184.618 161.822 184.618ZM162.913 189.792C162.588 190.129 162.124 190.291 161.498 190.291H159.63V186.451H161.498C162.124 186.451 162.588 186.614 162.924 186.95C163.249 187.275 163.412 187.739 163.412 188.366C163.4 188.992 163.238 189.456 162.913 189.792Z" fill="black"/>
<path d="M170.906 191.011L168.412 184.618H166.37L169.897 193.319C169.583 193.864 169.177 194.131 168.632 194.131C168.435 194.131 168.284 194.12 168.168 194.085L167.75 193.969V195.79L167.924 195.883C168.098 195.976 168.33 196.022 168.632 196.022C169.444 196.022 170.129 195.767 170.651 195.245C171.138 194.758 171.625 193.922 172.124 192.693L175.349 184.63H173.342L170.906 191.011Z" fill="black"/>
<path d="M189.816 184.618H187.426L183.853 189.004V184.618H181.95V189.004L178.4 184.618H175.964L180.5 190.071L175.57 195.941H178.029L181.95 191.266V195.941H183.853V191.266L187.739 195.941H190.268L185.303 190.048L189.816 184.618Z" fill="black"/>
<path d="M198.215 189.224H193.412V184.618H191.509V195.941H193.412V191.08H198.215V195.941H200.106V184.618H198.215V189.224Z" fill="black"/>
<path d="M207.148 184.444C205.639 184.444 204.433 184.978 203.54 186.045C202.67 187.089 202.229 188.516 202.229 190.28C202.229 192.043 202.67 193.47 203.54 194.514C204.421 195.581 205.639 196.115 207.148 196.115C208.656 196.115 209.862 195.581 210.756 194.514C211.626 193.47 212.066 192.043 212.066 190.28C212.066 188.516 211.626 187.089 210.756 186.045C209.874 184.978 208.656 184.444 207.148 184.444ZM209.317 193.203C208.783 193.888 208.076 194.224 207.159 194.224C206.243 194.224 205.535 193.888 205.001 193.203C204.456 192.496 204.178 191.509 204.178 190.28C204.178 189.05 204.456 188.052 205.001 187.345C205.535 186.66 206.243 186.324 207.159 186.324C208.076 186.324 208.783 186.66 209.317 187.345C209.862 188.052 210.141 189.038 210.141 190.28C210.129 191.509 209.851 192.496 209.317 193.203Z" fill="black"/>
<path d="M216.08 192.495V184.618H214.189V195.941H215.929L220.906 188.087V195.941H222.797V184.618H221.057L216.08 192.495Z" fill="black"/>
<path d="M242.832 184.618H238.749V195.941H240.651V192.136H242.832C243.865 192.136 244.712 191.776 245.373 191.069C246.023 190.373 246.359 189.456 246.359 188.366C246.359 187.275 246.034 186.37 245.385 185.674C244.712 184.978 243.865 184.618 242.832 184.618ZM243.923 189.792C243.598 190.129 243.134 190.291 242.507 190.291H240.64V186.451H242.507C243.134 186.451 243.598 186.614 243.934 186.95C244.259 187.275 244.422 187.739 244.422 188.366C244.422 188.992 244.259 189.456 243.923 189.792Z" fill="black"/>
<path d="M248.343 195.941H255.164V194.085H250.245V191.08H254.909V189.236H250.245V186.475H255.164V184.618H248.343V195.941Z" fill="black"/>
<path d="M265.57 184.618H263.134L259.283 189.05V184.618H257.38V195.941H259.283V191.231L263.447 195.941H266.034L260.756 190.048L265.57 184.618Z" fill="black"/>
<path d="M268.459 191.544C268.412 192.519 268.273 193.226 268.064 193.632C267.89 193.969 267.658 194.12 267.31 194.12C267.171 194.12 267.078 194.108 267.032 194.085L266.603 193.957V195.825L266.823 195.906C266.997 195.964 267.194 195.999 267.415 195.999C268.331 195.999 269.039 195.616 269.503 194.874C269.944 194.178 270.199 193.122 270.28 191.625L270.582 186.463H273.575V195.929H275.477V184.607H268.83L268.459 191.544Z" fill="black"/>
<path d="M280.965 184.618L277.067 195.941H279.074L280.072 192.89H283.552L284.55 195.941H286.557L282.659 184.618H280.965ZM280.652 191.103L281.812 187.565L282.972 191.103H280.652Z" fill="black"/>
<path d="M293.366 193.006L290.13 184.618H288.134V195.941H289.956V189.015L292.624 195.86H294.12L296.789 189.015V195.941H298.598V184.618H296.603L293.366 193.006Z" fill="black"/>
<path d="M305.118 188.574H303.007V184.618H301.104V195.941H305.118C306.15 195.941 306.997 195.593 307.647 194.897C308.297 194.212 308.621 193.331 308.621 192.263C308.621 191.196 308.285 190.303 307.635 189.607C306.997 188.922 306.139 188.574 305.118 188.574ZM306.232 193.609C305.907 193.922 305.431 194.073 304.805 194.073H303.007V190.419H304.805C305.431 190.419 305.895 190.57 306.22 190.895C306.545 191.208 306.707 191.66 306.707 192.263C306.719 192.855 306.556 193.296 306.232 193.609Z" fill="black"/>
<path d="M311.22 184.618H309.318V195.941H311.22V184.618Z" fill="black"/>
<path d="M219.595 181.707H217.391V183.911H219.595V181.707Z" fill="black"/>
<path d="M132.692 35.3831V44.223H123.864H115.024V35.3831H123.864H132.692ZM106.184 53.0514H115.024V44.2114H106.184V53.0514ZM106.184 70.7313V79.5713H115.024V70.7313H106.184ZM229.584 0.0348016V106.08H203.052V60.6036L185.918 105.151H167.507L150.372 60.6036V106.08H123.841V88.3996H115.001V79.5597H123.841V70.7197H115.001V61.8797H123.841V53.0398H132.681V61.8797H123.852V70.7197H132.681V61.8797H141.521V53.0398H150.361V44.1998H141.521V35.3598H132.681V26.5199V17.6799H141.521V8.83996H132.681V0H153.911L176.706 59.8728L199.502 0H229.584V0.0348016ZM141.532 88.3996H132.692V79.5597H123.864V88.3996H132.692V97.2396H141.532V88.3996ZM141.532 70.7313H132.704V79.5713H141.532V70.7313ZM159.201 26.5431H150.361V35.3831H159.201V26.5431ZM132.692 8.86315H123.852V26.5431H132.692V17.7031V8.86315ZM141.532 44.2114H132.692V53.0514H141.532V44.2114ZM123.852 4.45478V0.0348016H115.012V8.87476H123.852V4.45478ZM123.852 101.66V106.08H115.012V97.2396H123.852V101.66Z" fill="url(#paint1_linear_12_399)"/>
<defs>
<linearGradient id="paint0_linear_12_399" x1="191.999" y1="155.391" x2="355.981" y2="155.391" gradientUnits="userSpaceOnUse">
<stop stop-color="#B34C86"/>
<stop offset="1" stop-color="#E71D73"/>
</linearGradient>
<linearGradient id="paint1_linear_12_399" x1="106.182" y1="53.0544" x2="229.584" y2="53.0544" gradientUnits="userSpaceOnUse">
<stop stop-color="#B34C86"/>
<stop offset="1" stop-color="#E71D73"/>
</linearGradient>
</defs>
</svg>
