<svg width="52" height="52" viewBox="0 0 52 52" fill="none" xmlns="http://www.w3.org/2000/svg">
<path d="M0 24.96C0 13.1937 0 7.31062 3.65531 3.65531C7.31062 0 13.1937 0 24.96 0H27.04C38.8063 0 44.6893 0 48.3447 3.65531C52 7.31062 52 13.1937 52 24.96V27.04C52 38.8063 52 44.6893 48.3447 48.3447C44.6893 52 38.8063 52 27.04 52H24.96C13.1937 52 7.31062 52 3.65531 48.3447C0 44.6893 0 38.8063 0 27.04V24.96Z" fill="#F20988"/>
<path d="M13 20.735C13 20.2607 13.524 19.9734 13.9239 20.2286L23.0834 26.0735C24.8623 27.2087 27.1382 27.2087 28.9171 26.0735L38.0761 20.2289C38.476 19.9738 39 20.261 39 20.7353V33.6887C39 35.1861 37.7862 36.3999 36.2888 36.3999H15.7112C14.2138 36.3999 13 35.1861 13 33.6887L13 20.735Z" fill="#F9F8FB"/>
<path d="M15.0582 17.0689C14.4576 17.0689 14.2287 17.8529 14.735 18.176L23.8126 23.9686C25.1468 24.82 26.8537 24.82 28.1879 23.9686L37.265 18.1763C37.7713 17.8532 37.5425 17.0691 36.9419 17.0691L15.0582 17.0689Z" fill="#F9F8FB"/>
</svg>
