<svg width="51" height="71" viewBox="0 0 51 71" fill="none" xmlns="http://www.w3.org/2000/svg">
<path d="M50.8258 26.1453C50.8326 25.9037 50.836 25.6613 50.836 25.418C50.836 11.38 39.456 0 25.418 0C11.38 0 0 11.38 0 25.418C0 25.66 0.00338205 25.9012 0.0101015 26.1416C0.00338965 26.3054 0 26.4699 0 26.6351C0 32.4287 2.39041 38.0636 8.68515 46.635C18.4858 60.0477 20.7169 64.0159 23.5057 71H27.2506C29.8801 64.4127 32.2705 60.2064 42.1508 46.7144C48.844 37.5874 50.836 32.27 50.836 26.6351C50.836 26.4711 50.8326 26.3079 50.8258 26.1453Z" fill="#26161F"/>
</svg>
