<svg width="1025" height="240" viewBox="0 0 1025 240" fill="none" xmlns="http://www.w3.org/2000/svg">
<path d="M153.46 26.5C159.913 26.5 165.523 27.6367 170.29 29.91C175.093 32.1833 178.778 35.3917 181.345 39.535C183.912 43.6417 185.195 48.39 185.195 53.78C185.195 59.17 183.912 63.9183 181.345 68.025C178.778 72.1317 175.093 75.3217 170.29 77.595C165.487 79.8683 159.877 81.005 153.46 81.005H127.115V109H108.47V26.5H153.46ZM152.47 65.605C156.797 65.605 160.17 64.56 162.59 62.47C165.047 60.38 166.275 57.4833 166.275 53.78C166.275 50.0767 165.047 47.18 162.59 45.09C160.17 42.9633 156.797 41.9 152.47 41.9H127.115V65.605H152.47ZM216.696 74.9L213.726 93.49H267.736V109H193.431L199.866 67.75L193.431 26.5H267.186V42.01H213.726L216.696 60.6H264.326V74.9H216.696ZM337.671 61.37L367.371 109H346.141L325.791 75.89L298.731 109H281.956V26.5H300.546V83.59L346.306 26.5H366.216L337.671 61.37ZM467.096 26.5V109H448.396V43.055H408.246C408.942 51.2683 409.291 58.95 409.291 66.1C409.291 76.5867 408.374 85.075 406.541 91.565C404.707 98.055 401.847 102.84 397.961 105.92C394.074 109 388.996 110.54 382.726 110.54C380.122 110.54 377.574 110.265 375.081 109.715C372.624 109.165 370.406 108.377 368.426 107.35V91.73C371.542 92.9767 374.476 93.6 377.226 93.6C380.636 93.6 383.386 92.5733 385.476 90.52C387.602 88.43 389.161 85.185 390.151 80.785C391.177 76.3483 391.691 70.555 391.691 63.405C391.691 53.3583 390.902 41.0567 389.326 26.5H467.096ZM577.187 109H557.277L549.467 91.62H503.707L495.897 109H475.987L514.542 26.5H538.632L577.187 109ZM526.587 40.855L510.582 76.44H542.647L526.587 40.855ZM644.038 91.125L673.133 26.5H701.843V109H684.078V43.22L653.608 109H634.303L603.833 43.495V109H586.068V26.5H614.778L644.038 91.125ZM811.904 109H791.994L784.184 91.62H738.424L730.614 109H710.704L749.259 26.5H773.349L811.904 109ZM761.304 40.855L745.299 76.44H777.364L761.304 40.855ZM172.82 175.66C178.907 176.98 183.49 179.437 186.57 183.03C189.65 186.587 191.19 190.95 191.19 196.12C191.19 200.63 190.145 204.608 188.055 208.055C185.965 211.465 182.867 214.142 178.76 216.085C174.653 218.028 169.648 219 163.745 219H105.775L112.21 176.65L105.775 136.5H161.655C166.715 136.5 171.042 137.307 174.635 138.92C178.228 140.533 180.96 142.843 182.83 145.85C184.737 148.857 185.69 152.432 185.69 156.575C185.69 160.608 184.645 164.33 182.555 167.74C180.465 171.113 177.22 173.753 172.82 175.66ZM166.77 159.27C166.77 156.593 165.835 154.43 163.965 152.78C162.095 151.13 159.473 150.305 156.1 150.305H125.85L128.985 169.94H155.33C158.703 169.94 161.453 168.987 163.58 167.08C165.707 165.173 166.77 162.57 166.77 159.27ZM159.84 205.195C163.763 205.195 166.807 204.278 168.97 202.445C171.17 200.575 172.27 197.953 172.27 194.58C172.27 191.097 171.005 188.365 168.475 186.385C165.945 184.368 162.315 183.36 157.585 183.36H129.04L125.74 205.195H159.84ZM287.613 171.37L317.313 219H296.083L275.733 185.89L248.673 219H231.898V136.5H250.488V193.59L296.248 136.5H316.158L287.613 171.37ZM346.032 184.9L343.062 203.49H397.072V219H322.767L329.202 177.75L322.767 136.5H396.522V152.01H343.062L346.032 170.6H393.662V184.9H346.032ZM469.262 201.125L498.357 136.5H527.067V219H509.302V153.22L478.832 219H459.527L429.057 153.495V219H411.292V136.5H440.002L469.262 201.125ZM564.528 184.9L561.558 203.49H615.568V219H541.263L547.698 177.75L541.263 136.5H615.018V152.01H561.558L564.528 170.6H612.158V184.9H564.528ZM674.778 136.5C681.232 136.5 686.842 137.637 691.608 139.91C696.412 142.183 700.097 145.392 702.663 149.535C705.23 153.642 706.513 158.39 706.513 163.78C706.513 169.17 705.23 173.918 702.663 178.025C700.097 182.132 696.412 185.322 691.608 187.595C686.805 189.868 681.195 191.005 674.778 191.005H648.433V219H629.788V136.5H674.778ZM673.788 175.605C678.115 175.605 681.488 174.56 683.908 172.47C686.365 170.38 687.593 167.483 687.593 163.78C687.593 160.077 686.365 157.18 683.908 155.09C681.488 152.963 678.115 151.9 673.788 151.9H648.433V175.605H673.788ZM761.555 220.65C752.095 220.65 743.716 218.872 736.42 215.315C729.123 211.722 723.458 206.68 719.425 200.19C715.428 193.7 713.43 186.22 713.43 177.75C713.43 169.28 715.428 161.8 719.425 155.31C723.458 148.82 729.123 143.797 736.42 140.24C743.716 136.647 752.095 134.85 761.555 134.85C771.051 134.85 779.43 136.647 786.69 140.24C793.986 143.797 799.651 148.82 803.685 155.31C807.718 161.8 809.735 169.28 809.735 177.75C809.735 186.22 807.718 193.7 803.685 200.19C799.651 206.68 793.986 211.722 786.69 215.315C779.43 218.872 771.051 220.65 761.555 220.65ZM761.555 203.985C767.495 203.985 772.665 202.922 777.065 200.795C781.501 198.668 784.893 195.643 787.24 191.72C789.623 187.76 790.815 183.103 790.815 177.75C790.815 172.397 789.623 167.758 787.24 163.835C784.893 159.875 781.501 156.832 777.065 154.705C772.665 152.578 767.495 151.515 761.555 151.515C755.615 151.515 750.445 152.578 746.045 154.705C741.645 156.832 738.253 159.875 735.87 163.835C733.486 167.758 732.295 172.397 732.295 177.75C732.295 183.103 733.486 187.76 735.87 191.72C738.253 195.643 741.645 198.668 746.045 200.795C750.445 202.922 755.615 203.985 761.555 203.985ZM886.961 175.66C893.047 176.98 897.631 179.437 900.711 183.03C903.791 186.587 905.331 190.95 905.331 196.12C905.331 200.63 904.286 204.608 902.196 208.055C900.106 211.465 897.007 214.142 892.901 216.085C888.794 218.028 883.789 219 877.886 219H819.916L826.351 176.65L819.916 136.5H875.796C880.856 136.5 885.182 137.307 888.776 138.92C892.369 140.533 895.101 142.843 896.971 145.85C898.877 148.857 899.831 152.432 899.831 156.575C899.831 160.608 898.786 164.33 896.696 167.74C894.606 171.113 891.361 173.753 886.961 175.66ZM880.911 159.27C880.911 156.593 879.976 154.43 878.106 152.78C876.236 151.13 873.614 150.305 870.241 150.305H839.991L843.126 169.94H869.471C872.844 169.94 875.594 168.987 877.721 167.08C879.847 165.173 880.911 162.57 880.911 159.27ZM873.981 205.195C877.904 205.195 880.947 204.278 883.111 202.445C885.311 200.575 886.411 197.953 886.411 194.58C886.411 191.097 885.146 188.365 882.616 186.385C880.086 184.368 876.456 183.36 871.726 183.36H843.181L839.881 205.195H873.981ZM961.896 220.65C952.436 220.65 944.058 218.872 936.761 215.315C929.465 211.722 923.8 206.68 919.766 200.19C915.77 193.7 913.771 186.22 913.771 177.75C913.771 169.28 915.77 161.8 919.766 155.31C923.8 148.82 929.465 143.797 936.761 140.24C944.058 136.647 952.436 134.85 961.896 134.85C971.393 134.85 979.771 136.647 987.031 140.24C994.328 143.797 999.993 148.82 1004.03 155.31C1008.06 161.8 1010.08 169.28 1010.08 177.75C1010.08 186.22 1008.06 193.7 1004.03 200.19C999.993 206.68 994.328 211.722 987.031 215.315C979.771 218.872 971.393 220.65 961.896 220.65ZM961.896 203.985C967.836 203.985 973.006 202.922 977.406 200.795C981.843 198.668 985.235 195.643 987.581 191.72C989.965 187.76 991.156 183.103 991.156 177.75C991.156 172.397 989.965 167.758 987.581 163.835C985.235 159.875 981.843 156.832 977.406 154.705C973.006 152.578 967.836 151.515 961.896 151.515C955.956 151.515 950.786 152.578 946.386 154.705C941.986 156.832 938.595 159.875 936.211 163.835C933.828 167.758 932.636 172.397 932.636 177.75C932.636 183.103 933.828 187.76 936.211 191.72C938.595 195.643 941.986 198.668 946.386 200.795C950.786 202.922 955.956 203.985 961.896 203.985Z" fill="black"/>
</svg>
