<svg width="52" height="52" viewBox="0 0 52 52" fill="none" xmlns="http://www.w3.org/2000/svg">
<path d="M0 24.96C0 13.1937 0 7.31062 3.65531 3.65531C7.31062 0 13.1937 0 24.96 0H27.04C38.8063 0 44.6893 0 48.3447 3.65531C52 7.31062 52 13.1937 52 24.96V27.04C52 38.8063 52 44.6893 48.3447 48.3447C44.6893 52 38.8063 52 27.04 52H24.96C13.1937 52 7.31062 52 3.65531 48.3447C0 44.6893 0 38.8063 0 27.04V24.96Z" fill="#7D3DAF"/>
<path d="M43.9505 17.2774L43.9398 17.2344C43.0702 13.7188 39.1496 9.94645 35.5493 9.16163L35.5086 9.15327C29.6852 8.04234 23.7805 8.04234 17.9583 9.15327L17.9165 9.16163C14.3173 9.94645 10.3968 13.7188 9.52596 17.2344L9.51641 17.2774C8.44131 22.187 8.44131 27.1659 9.51641 32.0755L9.52596 32.1185C10.3596 35.484 13.9882 39.0831 17.4542 40.0729V43.9972C17.4542 45.4176 19.1851 46.1152 20.1694 45.0903L24.1455 40.9572C25.0078 41.0055 25.8706 41.0324 26.7335 41.0324C29.6649 41.0324 32.5975 40.7552 35.5086 40.1998L35.5493 40.1914C39.1496 39.4066 43.0702 35.6342 43.9398 32.1186L43.9505 32.0756C45.0256 27.1659 45.0256 22.187 43.9505 17.2774ZM40.8041 31.3636C40.2235 33.6571 37.2467 36.5085 34.8815 37.0353C31.7851 37.6241 28.6642 37.8758 25.5464 37.7894C25.4844 37.7877 25.4248 37.8117 25.3816 37.8562C24.9391 38.3103 22.4785 40.8363 22.4785 40.8363L19.3906 44.0055C19.1648 44.2408 18.7682 44.0807 18.7682 43.7558V37.2548C18.7682 37.1475 18.6915 37.0562 18.586 37.0355C18.5854 37.0354 18.5848 37.0353 18.5842 37.0352C16.219 36.5084 13.2434 33.657 12.6617 31.3634C11.6941 26.9257 11.6941 22.427 12.6617 17.9892C13.2434 15.6957 16.219 12.8443 18.5842 12.3175C23.992 11.289 29.475 11.289 34.8815 12.3175C37.2479 12.8443 40.2235 15.6957 40.8041 17.9892C41.7728 22.4271 41.7728 26.9258 40.8041 31.3636Z" fill="white"/>
<path d="M31.8785 34.3631C31.5149 34.2528 31.1683 34.1786 30.8465 34.045C27.5118 32.6615 24.4428 30.8766 22.0117 28.1405C20.6293 26.5846 19.5473 24.828 18.6326 22.969C18.1988 22.0875 17.8333 21.1714 17.4607 20.2612C17.121 19.4312 17.6214 18.5738 18.1483 17.9485C18.6427 17.3616 19.279 16.9124 19.968 16.5814C20.5058 16.323 21.0363 16.472 21.429 16.9278C22.2781 17.9133 23.058 18.9492 23.6896 20.0916C24.0779 20.7942 23.9714 21.6531 23.2676 22.1313C23.0965 22.2475 22.9406 22.3839 22.7813 22.5152C22.6415 22.6303 22.51 22.7465 22.4142 22.9023C22.2391 23.1873 22.2307 23.5234 22.3435 23.8333C23.2114 26.2186 24.6744 28.0733 27.0752 29.0724C27.4594 29.2322 27.8452 29.4183 28.2878 29.3667C29.029 29.2801 29.269 28.4671 29.7884 28.0423C30.2961 27.6272 30.9448 27.6217 31.4917 27.9677C32.0387 28.3139 32.5689 28.6856 33.096 29.0611C33.6133 29.4298 34.1284 29.7904 34.6056 30.2106C35.0645 30.6148 35.2225 31.1449 34.9641 31.6933C34.4911 32.6977 33.8028 33.5333 32.8099 34.0666C32.5295 34.217 32.1947 34.2658 31.8785 34.3631C32.1947 34.2658 31.5149 34.2526 31.8785 34.3631Z" fill="white"/>
<path d="M26.7423 15.433C31.1042 15.5552 34.6868 18.4499 35.4545 22.7623C35.5854 23.497 35.6319 24.2483 35.6901 24.994C35.7146 25.3077 35.537 25.6058 35.1984 25.6098C34.8488 25.614 34.6915 25.3215 34.6688 25.0079C34.6239 24.3872 34.5927 23.7638 34.5072 23.1482C34.0556 19.8989 31.4646 17.2107 28.2304 16.6338C27.7437 16.547 27.2456 16.5242 26.7526 16.4725C26.4409 16.4397 26.0328 16.4209 25.9637 16.0335C25.9058 15.7087 26.1799 15.4501 26.4892 15.4334C26.5733 15.4288 26.6579 15.4326 26.7423 15.433C31.1042 15.5552 26.6579 15.4326 26.7423 15.433Z" fill="white"/>
<path d="M33.371 24.0254C33.3638 24.0799 33.36 24.2079 33.3281 24.3286C33.2124 24.7665 32.5484 24.8213 32.3955 24.3794C32.3502 24.2482 32.3434 24.099 32.3432 23.9578C32.3416 23.0339 32.1408 22.111 31.675 21.3072C31.1961 20.4811 30.4644 19.7866 29.6062 19.3663C29.0873 19.1122 28.5261 18.9543 27.9574 18.8602C27.7088 18.8191 27.4576 18.7941 27.2078 18.7594C26.9051 18.7173 26.7435 18.5244 26.7578 18.2261C26.7712 17.9466 26.9755 17.7455 27.2801 17.7627C28.2811 17.8196 29.248 18.0359 30.1379 18.5072C31.9477 19.4656 32.9814 20.9784 33.2832 22.9983C33.2968 23.0898 33.3188 23.1805 33.3257 23.2724C33.3428 23.4992 33.3535 23.7263 33.371 24.0254C33.3638 24.0799 33.3535 23.7263 33.371 24.0254Z" fill="white"/>
<path d="M30.6581 23.9211C30.2932 23.9277 30.0979 23.7257 30.0603 23.3911C30.0341 23.1578 30.0134 22.9214 29.9578 22.6944C29.8481 22.2474 29.6105 21.8331 29.2345 21.5592C29.057 21.4299 28.8558 21.3356 28.6451 21.2748C28.3774 21.1975 28.0994 21.2188 27.8323 21.1533C27.5423 21.0822 27.3819 20.8474 27.4275 20.5753C27.4689 20.3276 27.7099 20.1344 27.9804 20.154C29.6716 20.276 30.8802 21.1503 31.0527 23.1412C31.0649 23.2816 31.0792 23.4301 31.048 23.5645C30.9947 23.7946 30.8243 23.9099 30.6581 23.9211C30.8243 23.9099 30.2932 23.9277 30.6581 23.9211Z" fill="white"/>
</svg>
