<svg width="52" height="52" viewBox="0 0 52 52" fill="none" xmlns="http://www.w3.org/2000/svg">
<path fill-rule="evenodd" clip-rule="evenodd" d="M3.6553 3.65531C0 7.31062 0 13.1937 0 24.96V27.04C0 38.8063 0 44.6893 3.6553 48.3447C7.31061 52 13.1937 52 24.96 52H27.04C38.8063 52 44.6893 52 48.3447 48.3447C52 44.6893 52 38.8063 52 27.04V24.96C52 13.1937 52 7.31062 48.3447 3.65531C44.6893 0 38.8063 0 27.04 0H24.96C13.1937 0 7.31061 0 3.6553 3.65531ZM8.77478 15.8169C9.05646 29.3369 15.8163 37.4619 27.668 37.4619H28.3399V29.7269C32.6949 30.1602 35.9879 33.3452 37.3096 37.4619H43.4631C41.7731 31.3086 37.3312 27.9069 34.5579 26.6069C37.3312 25.0036 41.2312 21.1036 42.1629 15.8169H36.5728C35.3594 20.1069 31.7632 24.0069 28.3399 24.3752V15.8169H22.7497V30.8102C19.283 29.9436 14.9064 25.7402 14.7115 15.8169H8.77478Z" fill="#0077FF"/>
</svg>
