<svg width="52" height="52" viewBox="0 0 52 52" fill="none" xmlns="http://www.w3.org/2000/svg">
<path d="M0 24.96C0 13.1937 0 7.31062 3.65531 3.65531C7.31062 0 13.1937 0 24.96 0H27.04C38.8063 0 44.6893 0 48.3447 3.65531C52 7.31062 52 13.1937 52 24.96V27.04C52 38.8063 52 44.6893 48.3447 48.3447C44.6893 52 38.8063 52 27.04 52H24.96C13.1937 52 7.31062 52 3.65531 48.3447C0 44.6893 0 38.8063 0 27.04V24.96Z" fill="#30CE7F"/>
<path fill-rule="evenodd" clip-rule="evenodd" d="M25.9411 9.54688C17.3748 9.54688 10.3998 16.6929 10.3998 25.477C10.3998 28.9661 11.5004 32.1909 13.3558 34.8222L11.4124 40.7364L17.3811 38.7757C19.834 40.4397 22.7712 41.4135 25.9285 41.4135C34.4948 41.4135 41.4698 34.2676 41.4698 25.4834C41.4823 16.6929 34.5073 9.54688 25.9411 9.54688Z" fill="#30CE7F" stroke="white" stroke-width="2.40294"/>
<path d="M31.9539 34.2548C32.7841 34.1775 34.6333 33.1326 35.0106 32.0491C35.388 30.9656 35.388 30.0369 35.2748 29.837C35.1616 29.6435 34.8597 29.5274 34.4068 29.2952C33.954 29.0631 31.7275 27.9409 31.3124 27.7861C30.8973 27.6313 30.5954 27.5539 30.2935 28.0182C29.9916 28.4826 29.1237 29.5274 28.8595 29.837C28.5953 30.1466 28.3312 30.1853 27.8784 29.9531C27.4255 29.7209 25.9663 29.2307 24.2367 27.6506C22.8908 26.4188 21.9788 24.8967 21.7147 24.4324C21.4505 23.968 21.6895 23.7165 21.9159 23.4843C22.1172 23.2779 22.3688 22.9425 22.5952 22.6717C22.8216 22.4008 22.8971 22.2073 23.048 21.8977C23.199 21.5882 23.1235 21.3173 23.0103 21.0851C22.8971 20.8529 21.9914 18.5634 21.6141 17.6346C21.2367 16.7059 20.8593 16.8607 20.5951 16.8607C20.331 16.8607 20.0291 16.822 19.7272 16.822C19.4253 16.822 18.9347 16.9381 18.5196 17.4025C18.1045 17.8668 16.9347 18.9955 16.9347 21.2786C16.9347 23.5558 18.5399 25.7501 18.78 26.0782L18.7838 26.0834C19.0102 26.393 21.9159 31.2365 26.5198 33.0939C31.1237 34.9514 31.1237 34.3322 31.9539 34.2548Z" fill="#F9F8FB"/>
</svg>
